<svg xmlns="http://www.w3.org/2000/svg" xmlns:xlink="http://www.w3.org/1999/xlink" width="27" height="43"><defs><path id="a" d="M403 768.5a1.5 1.5 0 1 1 3 0 1.5 1.5 0 0 1-3 0z"/><path id="b" d="M403 728.5a1.5 1.5 0 1 1 3 0 1.5 1.5 0 0 1-3 0z"/><path id="c" d="M391 756.5a1.5 1.5 0 1 1 3 0 1.5 1.5 0 0 1-3 0z"/><path id="d" d="M415 756.5a1.5 1.5 0 1 1 3 0 1.5 1.5 0 0 1-3 0z"/><path id="e" d="M404.5 728.5v40"/><path id="f" d="M392.5 756.5l12 12"/><path id="g" d="M416.5 756.5l-12 12"/><clipPath id="h"><use fill="#fff" xlink:href="#a"/></clipPath><clipPath id="i"><use fill="#fff" xlink:href="#b"/></clipPath><clipPath id="j"><use fill="#fff" xlink:href="#c"/></clipPath><clipPath id="k"><use fill="#fff" xlink:href="#d"/></clipPath></defs><use fill="#fff" fill-opacity="0" stroke="#fff" stroke-miterlimit="50" stroke-width="3" xlink:href="#e" transform="translate(-391 -727)"/><use fill="#fff" fill-opacity="0" stroke="#fff" stroke-miterlimit="50" stroke-width="3" xlink:href="#f" transform="translate(-391 -727)"/><use fill="#fff" fill-opacity="0" stroke="#fff" stroke-miterlimit="50" stroke-width="3" xlink:href="#g" transform="translate(-391 -727)"/><g fill="#fff" transform="translate(-391 -727)"><use xlink:href="#a"/><use fill-opacity="0" stroke="#fff" stroke-miterlimit="50" stroke-width="2" clip-path="url(&quot;#h&quot;)" xlink:href="#a"/></g><g fill="#fff" transform="translate(-391 -727)"><use xlink:href="#b"/><use fill-opacity="0" stroke="#fff" stroke-miterlimit="50" stroke-width="2" clip-path="url(&quot;#i&quot;)" xlink:href="#b"/></g><g fill="#fff" transform="translate(-391 -727)"><use xlink:href="#c"/><use fill-opacity="0" stroke="#fff" stroke-miterlimit="50" stroke-width="2" clip-path="url(&quot;#j&quot;)" xlink:href="#c"/></g><g fill="#fff" transform="translate(-391 -727)"><use xlink:href="#d"/><use fill-opacity="0" stroke="#fff" stroke-miterlimit="50" stroke-width="2" clip-path="url(&quot;#k&quot;)" xlink:href="#d"/></g></svg>