<svg xmlns="http://www.w3.org/2000/svg" xmlns:xlink="http://www.w3.org/1999/xlink" width="27" height="25"><defs><path id="a" d="M699 1742.5a1.5 1.5 0 1 1-3 0 1.5 1.5 0 0 1 3 0z"/><path id="b" d="M711 1754.5a1.5 1.5 0 1 1-3 0 1.5 1.5 0 0 1 3 0z"/><path id="c" d="M687 1754.5a1.5 1.5 0 1 1-3 0 1.5 1.5 0 0 1 3 0z"/><path id="d" d="M699 1764.5a1.5 1.5 0 1 1-3 0 1.5 1.5 0 0 1 3 0z"/><path id="e" d="M697.5 1764.5v-20"/><path id="f" d="M709.5 1754.5l-12-12"/><path id="g" d="M685.5 1754.5l12-12"/><clipPath id="h"><use fill="#fff" xlink:href="#a"/></clipPath><clipPath id="i"><use fill="#fff" xlink:href="#b"/></clipPath><clipPath id="j"><use fill="#fff" xlink:href="#c"/></clipPath><clipPath id="k"><use fill="#fff" xlink:href="#d"/></clipPath></defs><use fill="#fff" fill-opacity="0" stroke="#fff" stroke-miterlimit="50" stroke-width="3" xlink:href="#e" transform="translate(-684 -1741)"/><use fill="#fff" fill-opacity="0" stroke="#fff" stroke-miterlimit="50" stroke-width="3" xlink:href="#f" transform="translate(-684 -1741)"/><use fill="#fff" fill-opacity="0" stroke="#fff" stroke-miterlimit="50" stroke-width="3" xlink:href="#g" transform="translate(-684 -1741)"/><g fill="#fff" transform="translate(-684 -1741)"><use xlink:href="#a"/><use fill-opacity="0" stroke="#fff" stroke-miterlimit="50" stroke-width="2" clip-path="url(&quot;#h&quot;)" xlink:href="#a"/></g><g fill="#fff" transform="translate(-684 -1741)"><use xlink:href="#b"/><use fill-opacity="0" stroke="#fff" stroke-miterlimit="50" stroke-width="2" clip-path="url(&quot;#i&quot;)" xlink:href="#b"/></g><g fill="#fff" transform="translate(-684 -1741)"><use xlink:href="#c"/><use fill-opacity="0" stroke="#fff" stroke-miterlimit="50" stroke-width="2" clip-path="url(&quot;#j&quot;)" xlink:href="#c"/></g><g fill="#fff" transform="translate(-684 -1741)"><use xlink:href="#d"/><use fill-opacity="0" stroke="#fff" stroke-miterlimit="50" stroke-width="2" clip-path="url(&quot;#k&quot;)" xlink:href="#d"/></g></svg>