<svg xmlns="http://www.w3.org/2000/svg" xmlns:xlink="http://www.w3.org/1999/xlink" width="169" height="51"><defs><path id="a" d="M137.262 83.735v3.535h4.771v2.12h-4.77v3.71h5.3v2.121h-8.128v-13.43h8.128v2.121z"/><path id="b" d="M154.756 85.502c.707.884 1.06 1.944 1.06 3.358v6.185h-2.65v-5.832c0-.883-.177-1.413-.707-1.943-.353-.53-1.06-.707-1.767-.707-.707 0-1.414.176-1.767.707-.353.53-.707 1.237-.707 2.12v5.655h-2.65V84.442h2.65v2.12c.354-.706.707-1.236 1.414-1.59.707-.353 1.413-.53 2.297-.53 1.237-.177 2.12.354 2.827 1.06z"/><path id="c" d="M163.945 92.394l2.651-7.952h2.827l-3.887 10.603h-3.358l-3.887-10.603h2.827z"/><path id="d" d="M174.548 84.442v10.603h-2.65V84.442zm-2.474-4.064c.353-.354.707-.354 1.237-.354.53 0 .883.177 1.237.354.353.353.53.707.53 1.06 0 .354-.177.707-.53 1.06-.354.354-.707.354-1.237.354-.53 0-.884-.177-1.237-.354-.353-.353-.53-.706-.53-1.06 0-.353.177-.707.53-1.06z"/><path id="e" d="M182.146 84.972c.707-.353 1.414-.53 2.121-.53v2.828h-.707c-1.944 0-3.004.883-3.004 2.827v5.124h-2.65V84.62h2.65v1.944c.53-.707 1.06-1.237 1.59-1.59z"/><path id="f" d="M189.745 87.446c-.53.53-.707 1.237-.707 2.297s.177 1.768.707 2.298 1.237.707 1.944.707c.707 0 1.413-.177 1.944-.707.53-.53.706-1.237.706-2.298 0-1.06-.176-1.767-.706-2.297-.53-.53-1.237-.707-1.944-.707-.707 0-1.414.177-1.944.707zm4.771-2.474c.884.354 1.414 1.06 1.944 1.944.53.884.707 1.767.707 2.827s-.177 2.121-.707 2.828c-.53.883-1.06 1.413-1.944 1.944-.883.353-1.767.706-2.827.706s-1.944-.176-2.828-.706c-.883-.354-1.413-1.06-1.943-1.944-.53-.884-.707-1.767-.707-2.828 0-1.06.176-2.12.707-2.827.53-.883 1.06-1.414 1.943-1.944.884-.353 1.768-.707 2.828-.707 1.06 0 1.944.354 2.827.707z"/><path id="g" d="M206.886 87.093v2.297h-8.129v-2.297z"/><path id="h" d="M218.019 85.856c0-.707-.177-1.237-.53-1.59-.354-.354-1.06-.53-1.768-.53h-1.944V87.8h1.944c1.414.176 2.298-.53 2.298-1.944zm-4.418 4.24v4.949h-2.65v-13.43h4.947c1.59 0 2.827.353 3.534 1.06.884.707 1.237 1.767 1.237 3.18 0 1.238-.353 2.298-1.237 3.005-.883.707-1.944 1.06-3.534 1.06z"/><path id="i" d="M227.738 84.972c.706-.353 1.413-.53 2.12-.53v2.828h-.707c-1.944 0-3.004.883-3.004 2.827v5.124h-2.65V84.62h2.65v1.944a3.467 3.467 0 0 1 1.59-1.59z"/><path id="j" d="M235.336 87.446c-.53.53-.707 1.237-.707 2.297s.177 1.768.707 2.298 1.237.707 1.944.707c.707 0 1.414-.177 1.944-.707s.707-1.237.707-2.298c0-1.06-.177-1.767-.707-2.297-.53-.53-1.237-.707-1.944-.707-.884 0-1.414.177-1.944.707zm4.595-2.474c.883.354 1.413 1.06 1.943 1.944.53.884.707 1.767.707 2.827s-.176 2.121-.707 2.828c-.53.883-1.06 1.413-1.943 1.944-.884.353-1.768.706-2.828.706-1.06 0-1.944-.176-2.827-.706-.884-.354-1.414-1.06-1.944-1.944-.53-.884-.707-1.767-.707-2.828 0-1.06.177-2.12.707-2.827.53-.883 1.06-1.414 1.944-1.944.883-.353 1.767-.707 2.827-.707s2.12.354 2.828.707z"/><path id="k" d="M137.969 104.587v.53h-2.474v-3.534h2.474v.53h-1.767v.884h1.414v.53h-1.414v.883z"/><path id="l" d="M140.09 102.997v2.297h-.707v-3.534h.53l1.767 2.297v-2.297h.707v3.534h-.53z"/><path id="m" d="M144.33 101.583l.884 2.65.884-2.65h.706l-1.413 3.534h-.53l-1.414-3.534z"/><path id="n" d="M148.395 105.294v-3.534h.707v3.534z"/><path id="o" d="M151.399 103.35h1.06s.177 0 .177-.177c0 0 0-.176.177-.176v-.354s0-.176-.177-.176l-.177-.177h-1.06zm-.707 1.944v-3.534h1.59c.177 0 .354 0 .53.176.177 0 .177.177.354.354s.177.177.177.353v.354c0 .176 0 .353-.177.707-.177.176-.353.353-.53.353l.883 1.414h-.706l-.707-1.237h-.707v1.237z"/><path id="p" d="M155.463 103.35v.53c0 .177.177.354.177.354l.353.353c.177 0 .354.177.354.177.176 0 .353 0 .53-.177.177 0 .177-.177.353-.353 0-.177.177-.177.177-.354v-.883c0-.177-.177-.354-.177-.354-.176-.176-.176-.176-.353-.176s-.354-.177-.354-.177c-.176 0-.353 0-.53.177-.176 0-.176.176-.353.353 0 .177-.177.177-.177.353zm.884 1.944c-.177 0-.53 0-.707-.177-.177-.176-.354-.176-.53-.353-.177-.177-.354-.354-.354-.53 0-.177-.176-.354-.176-.707 0-.177 0-.53.176-.707.177-.177.177-.353.354-.53.176-.177.353-.354.53-.354.177-.176.53-.176.707-.176.176 0 .53 0 .707.176.176.177.353.177.53.354.176.177.353.353.353.53 0 .177.177.353.177.707 0 .177 0 .53-.177.707 0 .176-.177.353-.353.53-.177.177-.354.353-.53.353-.177 0-.354.177-.707.177z"/><path id="q" d="M160.234 102.997v2.297h-.706v-3.534h.53l1.767 2.297v-2.297h.707v3.534h-.53z"/><path id="r" d="M167.126 105.117v-2.297l-.883 1.767h-.354l-.883-1.767v2.297h-.707v-3.534h.707l1.06 1.944 1.06-1.944h.707v3.534z"/><path id="s" d="M172.074 104.587v.53H169.6v-3.534h2.474v.53h-1.767v.884h1.414v.53h-1.414v.883z"/><path id="t" d="M174.194 102.997v2.297h-.706v-3.534h.53l1.767 2.297v-2.297h.707v3.534h-.53z"/><path id="u" d="M180.91 102.29h-1.06v3.004h-.708v-3.004h-1.06v-.53h3.004z"/><path id="v" d="M183.56 103.88l-.53-1.413-.53 1.413zm-.707-2.297h.53l1.414 3.534h-.707l-.353-.883H182.5l-.354.883h-.706z"/><path id="w" d="M186.034 105.117v-3.534h.707v3.004h1.767v.53z"/><path id="x" d="M192.572 102.467c0-.177 0-.177.354.176 0-.176 0-.176.176-.176h.177c.177 0 .177 0 .177.176l-.177.177c-.177 0-.177.177-.353.177-.177 0-.177-.177-.177-.177l-.177-.177v-.176zm-.176 2.297c0-.177-.177-.177-.177-.177-.177 0-.177-.177-.177-.177v-.176c0-.177.177-.354.177-.354.177 0 .177-.176.353-.176l.884.883c-.177.177-.354.177-.53.177h-.53zm2.65.353l-.707-.707c0-.176.177-.353.177-.53v-.707h-.53v.354c0 .177-.177.177-.177.353l-.707-.707c.177 0 .177-.176.354-.353s.177-.353.177-.53v-.354l-.177-.176c-.177-.177-.177-.177-.354-.177h-.706c-.177 0-.354.177-.354.177 0 .176-.177.176-.177.353v.707c.177 0 .177.177.354.353l-.177.177-.177.177c-.176 0-.176 0-.176.177v.706c0 .177 0 .177.176.354 0 0 .177.177.354.177h1.06c.177 0 .354 0 .53-.177l.354.353z"/><path id="y" d="M200.878 104.587v.53h-2.474v-3.534h2.474v.53h-1.767v.884h1.413v.53h-1.413v.883z"/><path id="z" d="M202.998 102.997v2.297h-.707v-3.534h.53l1.768 2.297v-2.297h.706v3.534h-.53z"/><path id="A" d="M209.536 104.764c-.353.353-.53.353-1.06.353-.177 0-.53 0-.707-.176-.176-.177-.353-.177-.53-.354-.176-.177-.353-.353-.353-.53 0-.177-.177-.53-.177-.707 0-.177 0-.53.177-.707.177-.176.177-.353.353-.53.177-.177.354-.353.53-.353.177-.177.354-.177.707-.177.354 0 .707 0 .884.177l.53.53-.53.353c-.177-.176-.177-.353-.354-.353-.176-.177-.353-.177-.53-.177-.177 0-.353 0-.353.177-.177 0-.177.177-.354.177 0 .176-.176.176-.176.353v1.06c0 .177.176.354.176.354.177.176.177.176.354.176.176 0 .353.177.353.177a.972.972 0 0 0 .884-.53v-.177h-.707v-.53h1.237v1.767h-.53z"/><path id="B" d="M211.657 105.117v-3.534h.707v3.534z"/><path id="C" d="M214.661 102.997v2.297h-.707v-3.534h.53l1.767 2.297v-2.297h.707v3.534h-.53z"/><path id="D" d="M221.2 104.587v.53h-2.475v-3.534h2.474v.53h-1.767v.884h1.414v.53h-1.414v.883z"/><path id="E" d="M225.087 104.587v.53h-2.474v-3.534h2.474v.53h-1.767v.884h1.413v.53h-1.413v.883z"/><path id="F" d="M227.207 103.35h1.061s.176 0 .176-.177c0 0 0-.176.177-.176v-.354s0-.176-.177-.176l-.176-.177h-1.061zm-.706 1.767v-3.534h1.59c.177 0 .353 0 .53.177.177 0 .177.176.354.353.176.177.176.177.176.354v.353c0 .177 0 .353-.176.707-.177.177-.354.353-.53.353l.883 1.414h-.707l-.707-1.237h-.707v1.237z"/><path id="G" d="M230.742 105.117v-3.534h.706v3.534z"/><path id="H" d="M233.746 102.82v2.297h-.707v-3.534h.53l1.767 2.297v-2.297h.707v3.534h-.53z"/><path id="I" d="M240.284 104.764c-.353.353-.53.353-1.06.353-.177 0-.53 0-.707-.176-.177-.177-.354-.177-.53-.354-.177-.177-.354-.353-.354-.53-.176-.177-.176-.53-.176-.707 0-.177 0-.53.176-.707 0-.176.177-.353.354-.53.176-.177.353-.353.53-.353.177-.177.353-.177.707-.177.353 0 .707 0 .883.177l.53.53-.53.53c-.176-.177-.176-.353-.353-.353-.177-.177-.354-.177-.53-.177-.177 0-.354 0-.354.177-.176 0-.176.176-.353.176 0 0-.177.177-.177.354v1.06c0 .177.177.353.177.353.177.177.177.177.353.177.177 0 .354.177.354.177a.972.972 0 0 0 .883-.53v-.177h-.707v-.53h1.237v1.767h-.53z"/><path id="J" d="M168.01 110.242c0-.177 0-.354.176-.707 0-.177.177-.353.354-.53.176-.177.353-.354.53-.354.177-.176.53-.176.707-.176.353 0 .53 0 .883.176l.53.53-.53.354c0-.177-.176-.177-.176-.177l-.177-.176h-.354c-.176 0-.353 0-.53.176-.176 0-.176.177-.353.354 0 .176-.177.176-.177.353v.884c0 .176.177.353.177.353l.353.353c.177 0 .354.177.354.177h.176s.177 0 .177-.177l.177-.176.177-.177.53.353c0 .177-.177.177-.177.354-.177.177-.177.177-.353.177-.177 0-.354.176-.354.176h-.353c-.177 0-.53 0-.707-.176-.177-.177-.354-.177-.53-.354-.177-.177-.354-.353-.354-.53 0-.707-.176-.884-.176-1.06z"/><path id="K" d="M173.134 110.242v.53c0 .177.177.353.177.353l.353.354c.177 0 .354.176.354.176.176 0 .353 0 .53-.176.177 0 .177-.177.353-.354 0-.176.177-.176.177-.353v-.883c0-.177-.177-.354-.177-.354-.176-.177-.176-.177-.353-.177s-.354-.176-.354-.176c-.176 0-.353 0-.53.176-.176 0-.176.177-.353.354 0 .176-.177.176-.177.353v.177zm.884 1.767c-.177 0-.53 0-.707-.177-.177-.177-.353-.177-.53-.353-.177-.177-.354-.354-.354-.53 0-.177-.176-.354-.176-.707 0-.177 0-.53.176-.707.177-.177.177-.353.354-.53.176-.177.353-.354.53-.354.177-.176.53-.176.707-.176.176 0 .53 0 .707.176.176.177.353.177.53.354.176.177.353.353.353.53 0 .177.177.353.177.707 0 .177 0 .53-.177.707 0 .176-.177.353-.353.53-.177.176-.354.353-.53.353-.177.177-.354.177-.707.177z"/><path id="L" d="M177.905 109.712v2.297h-.706v-3.534h.53l1.767 2.297v-2.297h.707v3.534h-.53z"/><path id="M" d="M184.09 109.358c-.176-.176-.176-.176-.353-.176s-.177 0-.354-.177h-.353c-.177 0-.353 0-.353.177-.177 0-.177.176-.177.353v.177s0 .176.177.176c0 0 .176 0 .176.177.177 0 .177 0 .354.177.176 0 .353.177.53.177.177 0 .177.176.353.176.177 0 .177.177.177.354v.353c0 .177 0 .353-.177.53 0 .177-.176.177-.353.354-.177 0-.177.176-.354.176h-.53c-.353 0-.53 0-.707-.176-.176 0-.53-.177-.706-.354l.353-.53.177.177s.176.176.353.176.177.177.354.177h.353c.353 0 .53-.177.53-.353v-.177l-.177-.177s-.176 0-.353-.176c-.177 0-.177 0-.353-.177-.177 0-.354-.177-.53-.177-.177 0-.177-.176-.354-.176l-.177-.177v-.354c0-.176 0-.353.177-.53 0-.176.177-.176.353-.353.177-.177.177-.177.354-.177h.53c.177 0 .53 0 .707.177.177 0 .353.177.53.353z"/><path id="N" d="M187.448 111.479c.176 0 .353 0 .353-.177.177 0 .177-.177.354-.177 0-.176.176-.176.176-.353v-2.121h.707v2.474c0 .177-.177.354-.353.53-.177.177-.354.354-.53.354-.177.177-.354.177-.707.177-.354 0-.53 0-.707-.177-.177-.177-.354-.177-.53-.354-.177-.176-.177-.353-.354-.53v-2.474h.707v2.121c0 .177 0 .177.177.353 0 .177.177.177.353.177 0 .177.177.177.354.177z"/><path id="O" d="M190.628 112.009v-3.534h.707v3.004h1.767v.53z"/><path id="P" d="M196.46 109.005h-1.06v3.004h-.707v-3.004h-1.06v-.53h3.004z"/><path id="Q" d="M197.874 112.009v-3.534h.706v3.534z"/><path id="R" d="M200.878 109.712v2.297h-.707v-3.534h.53l1.767 2.297v-2.297h.707v3.534h-.53z"/><path id="S" d="M207.416 111.655c-.353.354-.53.354-1.06.354-.177 0-.53 0-.707-.177-.177-.177-.354-.177-.53-.353-.177-.177-.354-.354-.354-.53v-.707c0-.177 0-.53.177-.707 0-.177.177-.353.353-.53.177-.177.354-.354.53-.354.177-.176.354-.176.707-.176.354 0 .707 0 .884.176l.53.53-.53.354c-.177-.177-.177-.353-.353-.353-.177-.177-.354-.177-.53-.177-.177 0-.354 0-.354.177-.177 0-.177.176-.353.176-.177.177-.177.177-.177.354v1.06c0 .177.177.353.177.353.176.177.176.177.353.177s.353.177.353.177a.972.972 0 0 0 .884-.53v-.177h-.707v-.53h1.237v1.767h-.53z"/><path id="T" d="M88.667 83.028l-4.418 2.651v-3.534l4.418-2.65zm0 7.599l-4.418 2.65v-3.534l4.418-2.65zm4.241-9.189v-4.24L89.02 74.9l-6.008 3.534v19.615l.53-.354.354-.176 4.948-3.004 3.71 2.12v-4.24l-3.357-1.945v-3.534l3.358 1.944v-4.241l-3.358-1.944v-3.534zm14.137-11.486l-11.663 6.892v-3.535l11.663-6.891zm0 7.775L95.382 84.62v-3.534l11.663-6.892zm0 7.599l-11.663 6.891v-3.534l11.663-6.891zm7.245-15.197v-4.241L107.575 62l-13.077 7.599h-.176v27.743l12.9-7.599h.53l6.538 3.888v-4.24l-6.185-3.712v-3.534l6.185 3.71v-4.24l-6.185-3.711V74.37l6.185 3.534v-4.241l-6.185-3.711v-3.534z"/><path id="U" d="M101.037 110.595c-13.96 0-25.27-11.31-25.27-25.27 0-6.714 2.474-12.722 6.715-17.14 1.767-1.944 1.59-2.297-.353-.53C77.18 72.249 74 78.965 74 86.209c0 13.96 11.31 25.27 25.093 25.27 1.413 0 2.65-.177 3.887-.354 3.004-.53 2.828-.883-.176-.706-.53 0-1.06.176-1.767.176z"/><path id="V" d="M118.354 80.201c1.237 2.474 1.767 5.301 1.767 8.305 0 10.956-10.072 19.969-19.968 19.969-.884 0-1.767 0-2.65-.177-1.591-.353-2.651-.707-3.005-.884-.707-.353.177 1.06 3.004 1.768 1.06.353 2.298.353 3.535.353 10.956 0 19.968-9.012 19.968-19.968 0-3.358-.884-6.539-2.297-9.366-1.06-1.944-1.237-1.944-.354 0z"/><path id="W" d="M118 80.378c.884 2.65 1.061 5.655.708 8.482-1.414 10.956-12.723 18.378-22.443 17.14-.883-.176-1.767-.176-2.65-.53-1.59-.53-2.474-1.06-3.004-1.413-.707-.53 0 1.06 2.827 2.12 1.06.354 2.297.707 3.534.884 10.956 1.414 21.029-6.185 22.442-17.14.53-3.358 0-6.54-1.06-9.543-.53-2.12-.883-2.12-.353 0z"/><path id="X" d="M117.824 80.378c.53 2.827.353 5.655-.353 8.482-2.828 10.603-14.844 16.787-24.386 14.313-.884-.176-1.767-.53-2.474-.883-1.414-.707-2.298-1.237-2.828-1.767-.706-.53 0 1.06 2.474 2.474 1.06.53 2.12.883 3.358 1.237 10.602 2.827 21.558-3.711 24.386-14.314.883-3.18.883-6.538.176-9.542-.353-2.12-.706-2.12-.353 0z"/></defs><use fill="#004e7c" xlink:href="#a" transform="translate(-74 -62)"/><use fill="#004e7c" xlink:href="#b" transform="translate(-74 -62)"/><use fill="#004e7c" xlink:href="#c" transform="translate(-74 -62)"/><use fill="#004e7c" xlink:href="#d" transform="translate(-74 -62)"/><use fill="#004e7c" xlink:href="#e" transform="translate(-74 -62)"/><use fill="#004e7c" xlink:href="#f" transform="translate(-74 -62)"/><use fill="#004e7c" xlink:href="#g" transform="translate(-74 -62)"/><use fill="#004e7c" xlink:href="#h" transform="translate(-74 -62)"/><use fill="#004e7c" xlink:href="#i" transform="translate(-74 -62)"/><use fill="#004e7c" xlink:href="#j" transform="translate(-74 -62)"/><g fill="#4a494a" transform="translate(-74 -62)"><use xlink:href="#k"/><use xlink:href="#l"/><use xlink:href="#m"/><use xlink:href="#n"/><use xlink:href="#o"/><use xlink:href="#p"/><use xlink:href="#q"/><use xlink:href="#r"/><use xlink:href="#s"/><use xlink:href="#t"/><use xlink:href="#u"/><use xlink:href="#v"/><use xlink:href="#w"/><use xlink:href="#x"/><use xlink:href="#y"/><use xlink:href="#z"/><use xlink:href="#A"/><use xlink:href="#B"/><use xlink:href="#C"/><use xlink:href="#D"/><use xlink:href="#E"/><use xlink:href="#F"/><use xlink:href="#G"/><use xlink:href="#H"/><use xlink:href="#I"/><use xlink:href="#J"/><use xlink:href="#K"/><use xlink:href="#L"/><use xlink:href="#M"/><use xlink:href="#N"/><use xlink:href="#O"/><use xlink:href="#P"/><use xlink:href="#Q"/><use xlink:href="#R"/><use xlink:href="#S"/></g><use fill="#2fa148" xlink:href="#T" transform="translate(-74 -62)"/><use fill="#2fa148" xlink:href="#U" transform="translate(-74 -62)"/><use fill="#004e7c" xlink:href="#V" transform="translate(-74 -62)"/><use fill="#004e7c" xlink:href="#W" transform="translate(-74 -62)"/><use fill="#004e7c" xlink:href="#X" transform="translate(-74 -62)"/></svg>